<svg width="28" height="28" viewBox="0 0 28 28" fill="none" xmlns="http://www.w3.org/2000/svg">
<rect width="28" height="28" rx="14" fill="#E6FFF6"/>
<path d="M12.4605 5.89754L13.4502 6.28702C13.8032 6.42595 14.1958 6.42595 14.5488 6.28702L15.5384 5.89754C16.7498 5.42081 18.1211 5.98884 18.6406 7.18248L19.065 8.15767C19.2163 8.50555 19.4939 8.78313 19.8418 8.93452L20.817 9.35891C22.0106 9.87836 22.5787 11.2497 22.1019 12.461L21.7125 13.4507C21.5735 13.8037 21.5735 14.1963 21.7125 14.5493L22.1019 15.539C22.5787 16.7503 22.0106 18.1216 20.817 18.6411L19.8418 19.0655C19.4939 19.2169 19.2163 19.4945 19.065 19.8423L18.6406 20.8175C18.1211 22.0112 16.7498 22.5792 15.5384 22.1025L14.5488 21.713C14.1958 21.574 13.8032 21.574 13.4502 21.713L12.4605 22.1025C11.2492 22.5792 9.87784 22.0112 9.35839 20.8175L8.934 19.8423C8.78261 19.4945 8.50503 19.2169 8.15715 19.0655L7.18196 18.6411C5.98832 18.1216 5.4203 16.7503 5.89702 15.539L6.2865 14.5493C6.42543 14.1963 6.42543 13.8037 6.2865 13.4507L5.89702 12.461C5.4203 11.2497 5.98832 9.87836 7.18196 9.35891L8.15715 8.93452C8.50503 8.78313 8.78261 8.50555 8.934 8.15767L9.35839 7.18248C9.87784 5.98884 11.2492 5.42081 12.4605 5.89754ZM16.6258 11.6678L12.9781 15.7715L11.353 14.1464C11.1578 13.9512 10.8412 13.9512 10.6459 14.1464C10.4507 14.3417 10.4507 14.6583 10.6459 14.8536L12.6459 16.8536C12.8493 17.057 13.1821 17.0472 13.3732 16.8322L17.3732 12.3322C17.5566 12.1258 17.5381 11.8098 17.3317 11.6263C17.1253 11.4428 16.8092 11.4614 16.6258 11.6678Z" fill="#00C67E"/>
</svg>
