<svg width="49" height="48" viewBox="0 0 49 48" fill="none" xmlns="http://www.w3.org/2000/svg">
<rect x="0.5" width="48" height="48" rx="24" fill="#ECE3F8"/>
<path d="M23.4684 14.3244C24.083 13.8759 24.917 13.8759 25.5316 14.3244L32.9534 19.7404C33.9299 20.4529 33.4268 21.9981 32.2189 22.0001H16.7811C15.5732 21.9981 15.0701 20.4529 16.0466 19.7404L23.4684 14.3244ZM25.5 18.2501C25.5 17.6978 25.0523 17.2501 24.5 17.2501C23.9477 17.2501 23.5 17.6978 23.5 18.2501C23.5 18.8024 23.9477 19.2501 24.5 19.2501C25.0523 19.2501 25.5 18.8024 25.5 18.2501ZM23.75 28.0001H21.75V23.0001H23.75V28.0001ZM27.25 28.0001H25.25V23.0001H27.25V28.0001ZM31 28.0001H28.75V23.0001H31V28.0001ZM31.25 29.0001H17.75C16.5074 29.0001 15.5 30.0075 15.5 31.2501V31.7501C15.5 32.1643 15.8358 32.5001 16.25 32.5001H32.75C33.1642 32.5001 33.5 32.1643 33.5 31.7501V31.2501C33.5 30.0075 32.4926 29.0001 31.25 29.0001ZM20.25 28.0001H18V23.0001H20.25V28.0001Z" fill="#8C55D4"/>
</svg>
