<svg width="20" height="20" viewBox="0 0 20 20" fill="none" xmlns="http://www.w3.org/2000/svg">
<path d="M9.53532 17.7887L9.53533 17.7887L9.53044 17.786C7.91988 16.9076 5.12053 15.988 3.34105 15.7545C3.34048 15.7544 3.3399 15.7543 3.33933 15.7542L3.101 15.7213L3.10101 15.7213L3.0933 15.7203C2.25585 15.6181 1.54102 14.809 1.54102 13.95V3.88332C1.54102 3.36025 1.74403 2.89611 2.11133 2.56104C2.48214 2.22275 2.96011 2.06044 3.47132 2.10632L3.47132 2.10636L3.47749 2.10683C5.22944 2.24221 7.91821 3.13283 9.41687 4.07348L9.42374 4.07779L9.43075 4.08188L9.63075 4.19854L9.63074 4.19856L9.63461 4.20077C9.7704 4.27837 9.91474 4.29079 9.99085 4.29256C10.0632 4.29424 10.2052 4.28942 10.3396 4.2222L10.3609 4.21158L10.381 4.19898L10.5144 4.11565L10.5152 4.11514C12.0094 3.17729 14.6844 2.27345 16.4462 2.11665H16.4463H16.4466H16.4468H16.447H16.4472H16.4474H16.4476H16.4478H16.4481H16.4483H16.4485H16.4487H16.4489H16.4491H16.4494H16.4496H16.4498H16.45H16.4502H16.4505H16.4507H16.4509H16.4511H16.4513H16.4516H16.4518H16.452H16.4522H16.4525H16.4527H16.4529H16.4531H16.4534H16.4536H16.4538H16.4541H16.4543H16.4545H16.4547H16.455H16.4552H16.4554H16.4557H16.4559H16.4561H16.4564H16.4566H16.4568H16.457H16.4573H16.4575H16.4577H16.458H16.4582H16.4584H16.4587H16.4589H16.4592H16.4594H16.4596H16.4599H16.4601H16.4603H16.4606H16.4608H16.461H16.4613H16.4615H16.4618H16.462H16.4622H16.4625H16.4627H16.463H16.4632H16.4634H16.4637H16.4639H16.4642H16.4644H16.4646H16.4649H16.4651H16.4654H16.4656H16.4658H16.4661H16.4663H16.4666H16.4668H16.467H16.4673H16.4675H16.4678H16.468H16.4683H16.4685H16.4687H16.469H16.4692H16.4695H16.4697H16.47H16.4702H16.4704H16.4707H16.4709H16.4712H16.4714H16.4717H16.4719H16.4722H16.4724H16.4726H16.4729H16.4731H16.4734H16.4736H16.4739H16.4741H16.4743H16.4746H16.4748H16.4751H16.4753H16.4756H16.4758H16.4761H16.4763H16.4765H16.4768H16.477H16.4773H16.4775H16.4778H16.478H16.4783H16.4785H16.4787H16.479H16.4792H16.4795H16.4797H16.48H16.4802H16.4804H16.4807H16.4809H16.4812H16.4814H16.4817H16.4819H16.4821H16.4824H16.4826H16.4829H16.4831H16.4833H16.4836H16.4838H16.4841H16.4843H16.4845H16.4848H16.485H16.4853H16.4855H16.4857H16.486H16.4862H16.4865H16.4867H16.4869H16.4872H16.4874H16.4877H16.4879H16.4881H16.4884H16.4886H16.4888H16.4891H16.4893H16.4895H16.4898H16.49H16.4902H16.4905H16.4907H16.4909H16.4912H16.4914H16.4916H16.4919H16.4921H16.4923H16.4926H16.4928H16.493H16.4933H16.4935H16.4937H16.494H16.4942H16.4944H16.4946H16.4949H16.4951H16.4953H16.4956H16.4958H16.496H16.4962H16.4965H16.4967H16.4969H16.4971H16.4974H16.4976H16.4978H16.498H16.4982H16.4985H16.4987H16.4989H16.4991H16.4993H16.4996H16.4998H16.5H16.5002H16.5004H16.5006H16.5009H16.5011H16.5013H16.5015H16.5017H16.5019H16.5021H16.5024H16.5026H16.5028H16.503H16.5032H16.5034H16.5036H16.5038H16.504H16.5042H16.5045H16.5047H16.5049H16.5051H16.5053H16.5055H16.5057H16.5059H16.5061H16.5063H16.5065H16.5067H16.5069H16.5071H16.5073H16.5075H16.5077H16.5079H16.5081H16.5083H16.5085H16.5086H16.5088H16.509H16.5092H16.5094H16.5096H16.5098H16.51H16.5102H16.5104H16.5105H16.5107H16.5109H16.5111H16.5113H16.5115H16.5117H16.5118H16.512H16.5122H16.5124H16.5126H16.5127H16.5129H16.5131H16.5133H16.5134H16.5136H16.5138H16.5139H16.5141H16.5143H16.5145H16.5146H16.5148H16.515H16.5151H16.5153H16.5155H16.5156H16.5158H16.516H16.5161H16.5163H16.5164H16.5166H16.5167H16.5169H16.5171H16.5172H16.5174H16.5175H16.5177H16.5178H16.518H16.5181H16.5183H16.5184H16.5186H16.5187H16.5189H16.519H16.5192H16.5193H16.5194H16.5196H16.5197H16.5199H16.52H16.5201H16.5203H16.5204H16.5205H16.5207H16.5208H16.5209H16.5211H16.5212H16.5213H16.5214H16.5216H16.5217H16.5218H16.5219H16.5221H16.5222H16.5223H16.5224H16.5225H16.5226H16.5228H16.5229H16.523H16.5231H16.5232H16.5233H16.5234H16.5235H16.5236H16.5237H16.5238H16.5239H16.5241H16.5242H16.5243H16.5243H16.5483L16.5721 2.11437C17.0324 2.07023 17.5177 2.23442 17.8841 2.57472L17.8841 2.57473L17.8874 2.5777C18.2547 2.91278 18.4577 3.37692 18.4577 3.89999V13.9583C18.4577 14.8235 17.7451 15.6259 16.8975 15.7286L16.6225 15.762L16.6225 15.7619L16.6177 15.7626C14.8382 15.9958 12.0284 16.9241 10.4494 17.7956L10.4493 17.7954L10.4391 17.8014C10.3356 17.8618 10.1873 17.9 9.99935 17.9C9.82323 17.9 9.65945 17.8582 9.53532 17.7887ZM2.27888 2.74741L2.27888 2.74741L2.27749 2.74869C1.95964 3.0411 1.79102 3.45271 1.79102 3.88332V13.95C1.79102 14.3381 1.95636 14.6932 2.18725 14.956C2.41772 15.2184 2.74587 15.4257 3.12152 15.4785L3.12493 15.4789L3.37493 15.5123C5.18883 15.7541 8.00517 16.6765 9.61841 17.5557L9.63615 17.5654L9.65462 17.5736C9.75215 17.6169 9.85239 17.6374 9.93293 17.6454C9.99122 17.6513 10.1303 17.6611 10.2684 17.6059L10.2977 17.5942L10.3253 17.5788C11.9355 16.6852 14.7644 15.7554 16.5865 15.5128L16.8661 15.4799L16.8686 15.4796C17.251 15.4326 17.5821 15.2216 17.8124 14.9581C18.043 14.694 18.2077 14.3372 18.2077 13.95V3.89165C18.2077 3.44854 18.0365 3.05119 17.7289 2.75596L17.7216 2.7489L17.714 2.74216C17.3955 2.46038 16.9946 2.33044 16.5703 2.34999H16.5702H16.57H16.5698H16.5696H16.5694H16.5693H16.5691H16.5689H16.5687H16.5685H16.5683H16.5681H16.5679H16.5677H16.5676H16.5674H16.5672H16.567H16.5668H16.5666H16.5664H16.5662H16.566H16.5658H16.5656H16.5654H16.5652H16.565H16.5648H16.5646H16.5644H16.5642H16.564H16.5638H16.5636H16.5634H16.5632H16.563H16.5628H16.5626H16.5624H16.5622H16.562H16.5617H16.5615H16.5613H16.5611H16.5609H16.5607H16.5605H16.5603H16.5601H16.5598H16.5596H16.5594H16.5592H16.559H16.5588H16.5585H16.5583H16.5581H16.5579H16.5577H16.5575H16.5572H16.557H16.5568H16.5566H16.5564H16.5561H16.5559H16.5557H16.5555H16.5552H16.555H16.5548H16.5546H16.5543H16.5541H16.5539H16.5537H16.5534H16.5532H16.553H16.5527H16.5525H16.5523H16.5521H16.5518H16.5516H16.5514H16.5511H16.5509H16.5507H16.5504H16.5502H16.55H16.5498H16.5495H16.5493H16.5491H16.5488H16.5486H16.5483H16.5481H16.5479H16.5476H16.5474H16.5472H16.5469H16.5467H16.5465H16.5462H16.546H16.5457H16.5455H16.5453H16.545H16.5448H16.5446H16.5443H16.5441H16.5438H16.5436H16.5434H16.5431H16.5429H16.5426H16.5424H16.5422H16.5419H16.5417H16.5414H16.5412H16.541H16.5407H16.5405H16.5402H16.54H16.5397H16.5395H16.5393H16.539H16.5388H16.5385H16.5383H16.538H16.5378H16.5376H16.5373H16.5371H16.5368H16.5366H16.5363H16.5361H16.5359H16.5356H16.5354H16.5351H16.5349H16.5346H16.5344H16.5341H16.5339H16.5337H16.5334H16.5332H16.5329H16.5327H16.5324H16.5322H16.532H16.5317H16.5315H16.5312H16.531H16.5307H16.5305H16.5302H16.53H16.5298H16.5295H16.5293H16.529H16.5288H16.5285H16.5283H16.528H16.5278H16.5276H16.5273H16.5271H16.5268H16.5266H16.5263H16.5261H16.5259H16.5256H16.5254H16.5251H16.5249H16.5247H16.5244H16.5242H16.5239H16.5237H16.5234H16.5232H16.523H16.5227H16.5225H16.5222H16.522H16.5218H16.5215H16.5213H16.521H16.5208H16.5206H16.5203H16.5201H16.5199H16.5196H16.5194H16.5191H16.5189H16.5187H16.5184H16.5182H16.518H16.5177H16.5175H16.5173H16.517H16.5168H16.5166H16.5163H16.5161H16.5158H16.5156H16.5154H16.5152H16.5149H16.5147H16.5145H16.5142H16.514H16.5138H16.5135H16.5133H16.5131H16.5128H16.5126H16.5124H16.5122H16.5119H16.5117H16.5115H16.5113H16.511H16.5108H16.5106H16.5104H16.5101H16.5099H16.5097H16.5095H16.5092H16.509H16.5088H16.5086H16.5084H16.5081H16.5079H16.5077H16.5075H16.5073H16.507H16.5068H16.5066H16.5064H16.5062H16.506H16.5057H16.5055H16.5053H16.5051H16.5049H16.5047H16.5045H16.5043H16.504H16.5038H16.5036H16.5034H16.5032H16.503H16.5028H16.5026H16.5024H16.5022H16.502H16.5018H16.5016H16.5014H16.5012H16.5009H16.5007H16.5005H16.5003H16.5001H16.5H16.4998H16.4996H16.4994H16.4992H16.499H16.4988H16.4986H16.4984H16.4982H16.498H16.4978H16.4976H16.4974H16.4972H16.497H16.4969H16.4967H16.4965H16.4963H16.4961H16.4959H16.4957H16.4956H16.4954H16.4952H16.495H16.4948H16.4947H16.4945H16.4943H16.4941H16.494H16.4938H16.4936H16.4934H16.4933H16.4931H16.4929H16.4927H16.4926H16.4924H16.4922H16.4921H16.4919H16.4917H16.4916H16.4914H16.4912H16.4911H16.4909H16.4908H16.4906H16.4904H16.4903H16.4901H16.49H16.4898H16.4897H16.4895H16.4894H16.4892H16.4891H16.4889H16.4888H16.4886H16.4885H16.4883H16.4882H16.488H16.4879H16.4877H16.4876H16.4875H16.4873H16.4872H16.487H16.4869H16.4868H16.4866H16.4865H16.4864H16.4862H16.4861H16.486H16.4859H16.4857H16.4856H16.4855H16.4853H16.4852H16.4851H16.485H16.4849H16.4847H16.4846H16.4845H16.4844H16.4843H16.4842H16.484H16.4839H16.4838H16.4837H16.4836H16.4835H16.4834H16.4833H16.4832H16.4831H16.483H16.4829H16.4828H16.4827H16.4605L16.4384 2.35195C15.5891 2.42755 14.5085 2.68996 13.4722 3.03858C12.4356 3.38732 11.4042 3.83543 10.6593 4.30099L10.6501 4.30678L10.6411 4.31297L10.519 4.39691C10.2188 4.57692 9.7793 4.57114 9.5053 4.40054L9.49918 4.39673L9.49295 4.3931L9.29775 4.27923C8.54171 3.81581 7.50713 3.37131 6.4636 3.0263C5.41833 2.68072 4.32705 2.42269 3.4567 2.35164L3.43639 2.34999H3.41602H3.41582H3.41563H3.41543H3.41523H3.41504H3.41484H3.41465H3.41445H3.41426H3.41406H3.41387H3.41367H3.41348H3.41328H3.41309H3.41289H3.4127H3.4125H3.4123H3.41211H3.41191H3.41172H3.41152H3.41133H3.41113H3.41094H3.41074H3.41055H3.41035H3.41016H3.40996H3.40977H3.40957H3.40937H3.40918H3.40898H3.40879H3.40859H3.4084H3.4082H3.40801H3.40781H3.40762H3.40742H3.40723H3.40703H3.40684H3.40664H3.40645H3.40625H3.40605H3.40586H3.40566H3.40547H3.40527H3.40508H3.40488H3.40469H3.40449H3.4043H3.4041H3.40391H3.40371H3.40352H3.40332H3.40313H3.40293H3.40273H3.40254H3.40234H3.40215H3.40195H3.40176H3.40156H3.40137H3.40117H3.40098H3.40078H3.40059H3.40039H3.4002H3.4H3.3998H3.39961H3.39941H3.39922H3.39902H3.39883H3.39863H3.39844H3.39824H3.39805H3.39785H3.39766H3.39746H3.39727H3.39707H3.39687H3.39668H3.39648H3.39629H3.39609H3.3959H3.3957H3.39551H3.39531H3.39512H3.39492H3.39473H3.39453H3.39434H3.39414H3.39395H3.39375H3.39355H3.39336H3.39316H3.39297H3.39277H3.39258H3.39238H3.39219H3.39199H3.3918H3.3916H3.39141H3.39121H3.39102H3.39082H3.39062H3.39043H3.39023H3.39004H3.38984H3.38965H3.38945H3.38926H3.38906H3.38887H3.38867H3.38848H3.38828H3.38809H3.38789H3.3877H3.3875H3.3873H3.38711H3.38691H3.38672H3.38652H3.38633H3.38613H3.38594H3.38574H3.38555H3.38535H3.38516H3.38496H3.38477H3.38457H3.38438H3.38418H3.38398H3.38379H3.38359H3.3834H3.3832H3.38301H3.38281H3.38262H3.38242H3.38223H3.38203H3.38184H3.38164H3.38145H3.38125H3.38105H3.38086H3.38066H3.38047H3.38027H3.38008H3.37988H3.37969H3.37949H3.3793H3.3791H3.37891H3.37871H3.37852H3.37832H3.37812H3.37793H3.37773H3.37754H3.37734H3.37715H3.37695H3.37676H3.37656H3.37637H3.37617H3.37598H3.37578H3.37559H3.37539H3.3752H3.375H3.3748H3.37461H3.37441H3.37422H3.37402H3.37383H3.37363H3.37344H3.37324H3.37305H3.37285H3.37266H3.37246H3.37227H3.37207H3.37188H3.37168H3.37148H3.37129H3.37109H3.3709H3.3707H3.37051H3.37031H3.37012H3.36992H3.36973H3.36953H3.36934H3.36914H3.36895H3.36875H3.36855H3.36836H3.36816H3.36797H3.36777H3.36758H3.36738H3.36719H3.36699H3.3668H3.3666H3.36641H3.36621H3.36602H3.36582H3.36563H3.36543H3.36523H3.36504H3.36484H3.36465H3.36445H3.36426H3.36406H3.36387H3.36367H3.36348H3.36328H3.36309H3.36289H3.3627H3.3625H3.3623H3.36211H3.36191H3.36172H3.36152H3.36133H3.36113H3.36094H3.36074H3.36055H3.36035H3.36016H3.35996H3.35977H3.35957H3.35938H3.35918H3.35898H3.35879H3.35859H3.3584H3.3582H3.35801H3.35781H3.35762H3.35742H3.35723H3.35703H3.35684H3.35664H3.35645H3.35625H3.35605H3.35586H3.35566H3.35547H3.35527H3.35508H3.35488H3.35469H3.35449H3.3543H3.3541H3.35391H3.35371H3.35352H3.35332H3.35313H3.35293H3.35273H3.35254H3.35234H3.35215H3.35195H3.35176H3.35156H3.35137H3.35117H3.35098H3.35078H3.35059H3.35039H3.3502H3.35H3.3498H3.34961H3.34941H3.34922H3.34902H3.34883H3.34863H3.34844H3.34824H3.34805H3.34785H3.34766H3.34746H3.34727H3.34707H3.34687H3.34668H3.34648H3.34629H3.34609H3.3459H3.3457H3.34551H3.34531H3.34512H3.34492H3.34473H3.34453H3.34434H3.34414H3.34395H3.34375H3.34355H3.34336H3.34316H3.34297H3.34277H3.34258H3.34238H3.34219H3.34199H3.3418H3.3416H3.34141H3.34121H3.34102H3.34082H3.34063H3.34043H3.34023H3.34004H3.33984H3.33965H3.33945H3.33926H3.33906H3.33887H3.33867H3.33848H3.33828H3.33809H3.33789H3.3377H3.3375H3.3373H3.33711H3.33691H3.33672H3.33652H3.33633H3.33613H3.33594H3.33574H3.33555H3.33535H3.33516H3.33496H3.33477H3.33457H3.33438H3.33418H3.33398H3.33379H3.33359H3.3334H3.3332H3.33301H3.33281H3.33262H3.33242H3.33223H3.33203H3.33184H3.33164H3.33145H3.33125H3.33105H3.33086H3.33066H3.33047H3.33027H3.33008H3.32988H3.32969H3.32949H3.3293H3.3291H3.32891H3.32871H3.32852H3.32832H3.32812H3.32793H3.32773H3.32754H3.32734H3.32715H3.32695H3.32676H3.32656H3.32637H3.32617H3.32598H3.32578H3.32559H3.32539H3.3252H3.325H3.3248H3.32461H3.32441H3.32422H3.32402H3.32383H3.32363H3.32344H3.32324H3.32305H3.32285H3.32266H3.32246H3.32227H3.32207H3.32188H3.32168H3.32148H3.32129H3.32109H3.3209H3.3207H3.32051H3.32031H3.32012H3.31992H3.31973H3.31953H3.31934H3.31914H3.31895H3.31875H3.31855H3.31836H3.31816H3.31797H3.31777H3.31758H3.31738H3.31719H3.31699H3.3168H3.3166H3.31641H3.31621H3.31602C2.92919 2.34999 2.56602 2.48524 2.27888 2.74741Z" fill="#292D32" stroke="#959799"/>
<path d="M10 17.2C9.96985 17.2 9.93857 17.1877 9.91293 17.1621C9.88728 17.1364 9.875 17.1052 9.875 17.075V4.57501C9.875 4.54486 9.88728 4.51358 9.91293 4.48794C9.93857 4.4623 9.96985 4.45001 10 4.45001C10.0301 4.45001 10.0614 4.4623 10.0871 4.48794C10.1127 4.51358 10.125 4.54486 10.125 4.57501V17.075C10.125 17.1445 10.0699 17.2 10 17.2Z" fill="#292D32" stroke="#959799"/>
<path d="M6.45898 7.20001H4.58398C4.55384 7.20001 4.52256 7.18773 4.49691 7.16208C4.47127 7.13644 4.45898 7.10516 4.45898 7.07501C4.45898 7.04486 4.47127 7.01358 4.49691 6.98794C4.52256 6.9623 4.55384 6.95001 4.58398 6.95001H6.45898C6.48913 6.95001 6.52041 6.9623 6.54606 6.98794C6.5717 7.01358 6.58398 7.04486 6.58398 7.07501C6.58398 7.10516 6.5717 7.13644 6.54606 7.16208C6.52041 7.18773 6.48913 7.20001 6.45898 7.20001Z" fill="#292D32" stroke="#959799"/>
<path d="M7.08398 9.70001H4.58398C4.55384 9.70001 4.52256 9.68773 4.49691 9.66208C4.47127 9.63644 4.45898 9.60516 4.45898 9.57501C4.45898 9.54486 4.47127 9.51358 4.49691 9.48794C4.52256 9.4623 4.55384 9.45001 4.58398 9.45001H7.08398C7.11413 9.45001 7.14541 9.4623 7.17106 9.48794C7.1967 9.51358 7.20898 9.54486 7.20898 9.57501C7.20898 9.60516 7.1967 9.63644 7.17106 9.66208C7.14541 9.68773 7.11413 9.70001 7.08398 9.70001Z" fill="#292D32" stroke="#959799"/>
</svg>
