<svg width="20" height="20" viewBox="0 0 20 20" fill="none" xmlns="http://www.w3.org/2000/svg">
<path d="M16.8053 15.1038L16.8053 15.1038L16.8027 15.1042L16.5443 15.1375L16.5419 15.1378C15.1208 15.3285 13.1529 15.91 11.5741 16.572C11.371 16.6557 11.125 16.5031 11.125 16.2584V4.66673C11.125 4.55064 11.1917 4.43122 11.3138 4.36433C12.7805 3.57112 15.0082 2.86486 16.4966 2.7334H16.525C17.2489 2.7334 17.8333 3.31787 17.8333 4.04173V13.9501C17.8333 14.5037 17.3654 15.0346 16.8053 15.1038Z" fill="#2B2E33" stroke="#2B2E33"/>
<path d="M3.18626 15.1038L3.18886 15.1042L3.44719 15.1375L3.44968 15.1378C4.87066 15.3285 6.8385 15.9099 8.41727 16.5719M3.18626 15.1038L8.41823 16.5723C8.41791 16.5722 8.41759 16.572 8.41727 16.5719M3.18626 15.1038C2.62614 15.0346 2.1582 14.5037 2.1582 13.9501V4.04173C2.1582 3.31787 2.74268 2.7334 3.46654 2.7334H3.50324C4.99169 2.86486 7.2194 3.57112 8.68603 4.36433M3.18626 15.1038L8.68603 4.36433M8.41727 16.5719C8.62044 16.6558 8.86654 16.5032 8.86654 16.2584V4.66673C8.86654 4.53595 8.80241 4.42806 8.68603 4.36433M8.41727 16.5719L8.68603 4.36433M6.04154 5.95006H4.16654C3.54873 5.95006 3.04154 6.45726 3.04154 7.07506C3.04154 7.70554 3.55308 8.20006 4.16654 8.20006H6.04154C6.65499 8.20006 7.16654 7.70554 7.16654 7.07506C7.16654 6.45726 6.65935 5.95006 6.04154 5.95006ZM4.16654 10.7001H6.66654C7.27999 10.7001 7.79154 10.2055 7.79154 9.57506C7.79154 8.95726 7.28435 8.45006 6.66654 8.45006H4.16654C3.54873 8.45006 3.04154 8.95726 3.04154 9.57506C3.04154 10.2055 3.55308 10.7001 4.16654 10.7001Z" fill="#2B2E33" stroke="#2B2E33"/>
</svg>
