<svg width="16" height="17" viewBox="0 0 16 17" fill="none" xmlns="http://www.w3.org/2000/svg">
<path d="M0.209704 0.887101L0.292893 0.792893C0.653377 0.432409 1.22061 0.40468 1.6129 0.709704L1.70711 0.792893L8 7.085L14.2929 0.792893C14.6834 0.402369 15.3166 0.402369 15.7071 0.792893C16.0976 1.18342 16.0976 1.81658 15.7071 2.20711L9.415 8.5L15.7071 14.7929C16.0676 15.1534 16.0953 15.7206 15.7903 16.1129L15.7071 16.2071C15.3466 16.5676 14.7794 16.5953 14.3871 16.2903L14.2929 16.2071L8 9.915L1.70711 16.2071C1.31658 16.5976 0.683418 16.5976 0.292893 16.2071C-0.0976309 15.8166 -0.0976309 15.1834 0.292893 14.7929L6.585 8.5L0.292893 2.20711C-0.0675905 1.84662 -0.0953204 1.27939 0.209704 0.887101L0.292893 0.792893L0.209704 0.887101Z" fill="#727477"/>
</svg>
