<svg width="40" height="40" viewBox="0 0 40 40" fill="none" xmlns="http://www.w3.org/2000/svg">
<path d="M23.125 32.6464C22.5227 32.6468 21.9331 32.473 21.4273 32.146L13.125 26.7739V36.875C13.1256 37.3721 13.3233 37.8487 13.6748 38.2002C14.0263 38.5517 14.5029 38.7494 15 38.75H31.25C31.7471 38.7494 32.2237 38.5517 32.5752 38.2002C32.9267 37.8487 33.1244 37.3721 33.125 36.875V26.7739L24.8227 32.146C24.3169 32.473 23.7273 32.6468 23.125 32.6464Z" fill="#8C55D4"/>
<path d="M13.1533 25.3032L22.1064 31.0965C22.41 31.2925 22.7637 31.3967 23.1251 31.3967C23.4864 31.3967 23.8401 31.2925 24.1437 31.0965L33.0968 25.3032C33.0206 24.8686 32.7937 24.4747 32.456 24.1907C32.1183 23.9066 31.6914 23.7506 31.2501 23.75H15.0001C14.5589 23.7506 14.1319 23.9066 13.7942 24.1907C13.4565 24.4747 13.2296 24.8686 13.1533 25.3032Z" fill="#8C55D4"/>
<path d="M31.5348 4.76484C31.6947 4.72264 31.8648 4.74551 32.0079 4.82847C32.1509 4.91142 32.2553 5.04769 32.2981 5.20742C32.3409 5.36716 32.3186 5.53734 32.2362 5.6807C32.1537 5.82405 32.0179 5.9289 31.8583 5.97227L26.2567 7.47328L25.8966 13.4733L37.5004 3.81344L22.6211 1.25L25.9329 6.26562L31.5348 4.76484Z" fill="#B28EE2"/>
<path d="M17.0079 10.0373C17.0824 10.0373 17.1562 10.0239 17.226 9.9979C17.7762 9.79297 18.3414 9.59165 18.9057 9.4004C19.0627 9.34715 19.192 9.23372 19.2654 9.08507C19.3387 8.93641 19.35 8.76472 19.2968 8.60774C19.2435 8.45077 19.1301 8.32137 18.9814 8.24803C18.8328 8.17468 18.6611 8.1634 18.5041 8.21665C17.9279 8.41196 17.3511 8.61727 16.7893 8.82649C16.6518 8.87753 16.5367 8.9753 16.464 9.10268C16.3913 9.23007 16.3657 9.37896 16.3918 9.5233C16.4178 9.66764 16.4937 9.79823 16.6063 9.89222C16.7189 9.98621 16.861 10.0376 17.0076 10.0374L17.0079 10.0373Z" fill="#C6AAEA"/>
<path d="M4.00464 28.6456C3.94869 28.7056 3.90511 28.7761 3.8764 28.853C3.84769 28.9299 3.8344 29.0117 3.8373 29.0937C3.84021 29.1757 3.85924 29.2564 3.89331 29.3311C3.92738 29.4057 3.97583 29.473 4.03589 29.5289C4.50819 29.9688 5.02749 30.3553 5.5844 30.6816C5.72747 30.7653 5.89793 30.7888 6.05831 30.7468C6.21868 30.7049 6.35582 30.601 6.43956 30.4579C6.5233 30.3148 6.54678 30.1444 6.50483 29.984C6.46289 29.8236 6.35895 29.6865 6.21589 29.6027C5.73823 29.323 5.29284 28.9915 4.88776 28.6142C4.76648 28.5013 4.60532 28.4412 4.43971 28.447C4.27411 28.4529 4.11761 28.5243 4.00464 28.6456Z" fill="#C6AAEA"/>
<path d="M20.4971 8.2275C20.5202 8.30628 20.5587 8.37973 20.6102 8.44364C20.6617 8.50755 20.7253 8.56068 20.7974 8.59998C20.8695 8.63928 20.9486 8.66398 21.0302 8.67267C21.1119 8.68136 21.1944 8.67387 21.2732 8.65063C22.046 8.42305 22.6345 8.26719 22.9919 8.17649C23.072 8.15686 23.1475 8.12156 23.2139 8.07261C23.2804 8.02367 23.3365 7.96206 23.379 7.89133C23.4215 7.8206 23.4495 7.74216 23.4616 7.66053C23.4736 7.5789 23.4693 7.49569 23.449 7.41571C23.4287 7.33573 23.3928 7.26056 23.3433 7.19454C23.2938 7.12852 23.2317 7.07295 23.1607 7.03104C23.0896 6.98913 23.0109 6.96171 22.9292 6.95037C22.8475 6.93902 22.7643 6.94397 22.6845 6.96492C22.3166 7.05867 21.7118 7.21844 20.9201 7.45141C20.7611 7.49824 20.6272 7.60631 20.5479 7.75186C20.4686 7.8974 20.4503 8.0685 20.4971 8.2275Z" fill="#C6AAEA"/>
<path d="M1.49734 21.0836C1.34328 21.7086 1.26033 22.3491 1.25007 22.9927C1.24753 23.1585 1.31091 23.3184 1.42629 23.4374C1.54166 23.5564 1.69958 23.6247 1.86531 23.6273H1.87507C2.03918 23.6273 2.19671 23.5628 2.31365 23.4476C2.43059 23.3325 2.49755 23.176 2.50007 23.0119C2.50882 22.4625 2.57958 21.9158 2.71101 21.3823C2.74948 21.2217 2.72286 21.0525 2.63698 20.9115C2.55109 20.7705 2.4129 20.6692 2.25259 20.6297C2.09229 20.5903 1.92288 20.6159 1.78136 20.7009C1.63984 20.7859 1.53771 20.9235 1.49726 21.0835L1.49734 21.0836Z" fill="#C6AAEA"/>
<path d="M14.4363 9.76289C13.868 10.0043 13.3076 10.2544 12.7707 10.5062C12.6964 10.541 12.6297 10.5902 12.5744 10.6508C12.5191 10.7114 12.4763 10.7824 12.4484 10.8596C12.4205 10.9368 12.408 11.0187 12.4118 11.1007C12.4156 11.1827 12.4354 11.2631 12.4703 11.3374C12.5051 11.4117 12.5543 11.4784 12.6149 11.5338C12.6755 11.5891 12.7465 11.6319 12.8237 11.6598C12.9009 11.6877 12.9828 11.7001 13.0648 11.6964C13.1468 11.6926 13.2272 11.6727 13.3015 11.6379C13.8246 11.3925 14.3708 11.1487 14.925 10.9134C15.0012 10.8818 15.0705 10.8354 15.1287 10.7769C15.1869 10.7184 15.233 10.6489 15.2642 10.5725C15.2954 10.4961 15.3112 10.4143 15.3107 10.3317C15.3101 10.2492 15.2932 10.1676 15.261 10.0916C15.2287 10.0157 15.1817 9.94683 15.1227 9.88912C15.0637 9.83141 14.9938 9.78596 14.9171 9.7554C14.8405 9.72483 14.7585 9.70976 14.676 9.71104C14.5934 9.71233 14.512 9.72995 14.4363 9.76289Z" fill="#C6AAEA"/>
<path d="M9.24362 13.728C9.3592 13.728 9.4725 13.6958 9.5708 13.635C10.0552 13.3368 10.5695 13.0389 11.0999 12.7497C11.2454 12.6703 11.3535 12.5364 11.4003 12.3774C11.4471 12.2184 11.4288 12.0473 11.3494 11.9018C11.3101 11.8297 11.2571 11.7661 11.1932 11.7145C11.1293 11.663 11.0559 11.6245 10.9772 11.6014C10.8181 11.5546 10.647 11.5728 10.5015 11.6522C9.9519 11.952 9.41815 12.2609 8.91557 12.5707C8.79964 12.6421 8.71018 12.7493 8.66078 12.8761C8.61137 13.003 8.60473 13.1425 8.64187 13.2735C8.679 13.4044 8.75787 13.5197 8.8665 13.6017C8.97513 13.6838 9.10749 13.7281 9.24362 13.728Z" fill="#C6AAEA"/>
<path d="M7.60688 30.9175C7.58896 30.9976 7.58699 31.0804 7.60108 31.1613C7.61517 31.2422 7.64505 31.3195 7.68901 31.3888C7.73298 31.4581 7.79016 31.518 7.8573 31.5653C7.92444 31.6125 8.00022 31.646 8.08032 31.6639C8.71008 31.8044 9.35337 31.8751 9.9986 31.8748C10.1644 31.8748 10.3233 31.809 10.4405 31.6918C10.5578 31.5746 10.6236 31.4156 10.6236 31.2498C10.6236 31.0841 10.5578 30.9251 10.4405 30.8079C10.3233 30.6907 10.1644 30.6248 9.9986 30.6248C9.44519 30.6251 8.89344 30.5644 8.35329 30.444C8.27319 30.4261 8.19034 30.4241 8.10948 30.4382C8.02861 30.4523 7.95132 30.4822 7.88201 30.5262C7.8127 30.5701 7.75273 30.6273 7.70552 30.6945C7.65831 30.7616 7.6248 30.8374 7.60688 30.9175Z" fill="#C6AAEA"/>
<path d="M6.79713 14.0087C6.28698 14.3926 5.80495 14.7877 5.36463 15.1832C5.24452 15.2948 5.17306 15.4491 5.16567 15.6129C5.15829 15.7767 5.21555 15.9368 5.32513 16.0588C5.43471 16.1808 5.58782 16.2548 5.75147 16.2649C5.91511 16.275 6.07618 16.2204 6.19995 16.1129C6.61354 15.7414 7.06713 15.3694 7.5487 15.0072C7.61428 14.9578 7.6695 14.8961 7.71121 14.8254C7.75292 14.7547 7.78029 14.6765 7.79177 14.5952C7.80325 14.5139 7.79861 14.4312 7.77812 14.3517C7.75762 14.2722 7.72168 14.1976 7.67233 14.132C7.62298 14.0664 7.5612 14.0112 7.49051 13.9695C7.41982 13.9278 7.34161 13.9004 7.26034 13.8889C7.17907 13.8774 7.09633 13.8821 7.01686 13.9026C6.93738 13.9231 6.86272 13.959 6.79713 14.0084V14.0087Z" fill="#C6AAEA"/>
<path d="M4.44878 16.9666C4.38482 16.9152 4.31135 16.8769 4.23257 16.8538C4.15379 16.8308 4.07125 16.8235 3.98965 16.8323C3.90805 16.8412 3.82899 16.866 3.75699 16.9054C3.68499 16.9448 3.62146 16.9981 3.57003 17.062C3.17312 17.5529 2.81508 18.0739 2.49917 18.6204C2.45733 18.6916 2.43002 18.7705 2.41884 18.8523C2.40765 18.9342 2.41281 19.0175 2.43402 19.0973C2.45522 19.1772 2.49205 19.252 2.54236 19.3176C2.59268 19.3831 2.6555 19.438 2.72717 19.4791C2.79884 19.5202 2.87796 19.5467 2.95993 19.557C3.04191 19.5673 3.12512 19.5613 3.20475 19.5393C3.28438 19.5173 3.35885 19.4797 3.42386 19.4287C3.48886 19.3777 3.54311 19.3143 3.58347 19.2422C3.86698 18.7523 4.18827 18.2852 4.5444 17.8452C4.64821 17.716 4.69646 17.5509 4.67853 17.3861C4.66059 17.2214 4.57795 17.0705 4.44878 16.9666Z" fill="#C6AAEA"/>
<path d="M2.81556 25.288C2.79236 25.2089 2.75375 25.1351 2.70193 25.071C2.65012 25.0069 2.58613 24.9537 2.51366 24.9144C2.44119 24.8751 2.36166 24.8505 2.27966 24.8421C2.19766 24.8337 2.1148 24.8416 2.03586 24.8653C1.95691 24.8891 1.88344 24.9282 1.81968 24.9804C1.75592 25.0327 1.70313 25.097 1.66434 25.1698C1.62555 25.2425 1.60153 25.3222 1.59367 25.4042C1.58581 25.4863 1.59426 25.5691 1.61853 25.6479C1.80454 26.2663 2.0587 26.8621 2.37634 27.4244C2.41673 27.4958 2.47079 27.5586 2.53545 27.6092C2.60011 27.6597 2.67409 27.6971 2.75317 27.719C2.83225 27.741 2.91489 27.7472 2.99635 27.7372C3.07782 27.7272 3.15653 27.7013 3.22798 27.6609C3.29944 27.6205 3.36223 27.5665 3.41279 27.5018C3.46335 27.4372 3.50068 27.3632 3.52265 27.2841C3.54461 27.205 3.55079 27.1224 3.54082 27.0409C3.53085 26.9595 3.50493 26.8807 3.46455 26.8093C3.1925 26.3278 2.97484 25.8176 2.81556 25.288Z" fill="#C6AAEA"/>
</svg>
