<svg width="40" height="40" viewBox="0 0 40 40" fill="none" xmlns="http://www.w3.org/2000/svg">
<path fill-rule="evenodd" clip-rule="evenodd" d="M22.0784 15.9506C23.4475 15.9506 24.5657 17.0689 24.5657 18.438V26.115C24.5657 27.4841 23.4475 28.6023 22.0784 28.6023H11.3308C9.96164 28.6023 8.84332 27.4841 8.84332 26.115V18.438C8.84332 17.0689 9.96156 15.9506 11.3308 15.9506H12.0872C12.1264 15.9506 12.1584 15.9186 12.1584 15.8794V14.0063C12.1584 11.5048 14.2031 9.46008 16.7046 9.46008C19.2061 9.46008 21.2508 11.5048 21.2508 14.0063V15.8794C21.2508 15.9186 21.2828 15.9506 21.322 15.9506H22.0784ZM17.2379 21.4455V19.1887C17.2379 18.8942 16.9991 18.6554 16.7045 18.6554C16.41 18.6554 16.1712 18.8942 16.1712 19.1887V21.4455C16.1712 21.469 16.1608 21.4892 16.1419 21.503C16.1228 21.5169 16.1004 21.5204 16.0781 21.5131L13.9325 20.816C13.6529 20.7251 13.3526 20.8781 13.2617 21.1577C13.1708 21.4373 13.3238 21.7376 13.6034 21.8285L15.7499 22.5259C15.7722 22.5332 15.7883 22.5492 15.7955 22.5715C15.8028 22.5938 15.7992 22.6162 15.7854 22.6353L14.4584 24.4618C14.2858 24.7 14.3389 25.033 14.5771 25.2056C14.8152 25.3782 15.1482 25.325 15.3208 25.0869L16.647 23.2616C16.6608 23.2426 16.681 23.2323 16.7045 23.2323C16.728 23.2323 16.7482 23.2426 16.762 23.2616L18.0881 25.0869C18.2607 25.325 18.5937 25.3782 18.8319 25.2056C19.07 25.033 19.1232 24.7 18.9506 24.4618L17.6236 22.6353C17.6098 22.6162 17.6063 22.5938 17.6136 22.5715C17.6208 22.5492 17.6369 22.5331 17.6592 22.5259L19.8057 21.8285C20.0853 21.7376 20.2383 21.4372 20.1474 21.1577C20.0565 20.8781 19.7561 20.7251 19.4766 20.816L17.3311 21.5131C17.3088 21.5204 17.2864 21.5168 17.2673 21.503C17.2482 21.4892 17.2379 21.469 17.2379 21.4455ZM20.184 15.8794V14.0063C20.184 12.0936 18.6172 10.5268 16.7044 10.5268C14.7917 10.5268 13.2248 12.0937 13.2248 14.0063V15.8794C13.2248 15.9186 13.2568 15.9506 13.296 15.9506H20.1129C20.1521 15.9506 20.184 15.9186 20.184 15.8794ZM31.0023 10.0239C31.05 15.5682 30.7464 20.9184 28.9407 25.4927C27.503 29.1349 25.1279 32.2716 21.2505 34.6046C21.2274 34.6185 21.2148 34.6422 21.2161 34.6692C21.2176 34.6961 21.2326 34.7185 21.2569 34.7298C21.748 34.9597 22.9344 35.4893 23.2889 35.5314C23.294 35.5321 23.2985 35.5321 23.3036 35.5316C23.4049 35.5225 23.8216 35.379 23.9291 35.3366C35.2351 30.869 36.5872 20.6046 36.5329 9.9384C36.5328 9.90576 36.5114 9.87824 36.4798 9.87C31.1832 8.476 28.2928 7.52896 23.332 4.47896C23.3085 4.46448 23.2809 4.46448 23.2574 4.47888C22.5656 4.90368 21.8619 5.31784 21.161 5.70792C21.1377 5.72088 21.1243 5.74384 21.1244 5.77048C21.1246 5.79712 21.1383 5.81992 21.1617 5.83256C24.3027 7.53352 26.9316 8.53432 30.6041 9.49184C30.8488 9.5552 31.0092 9.77904 31.0022 10.0214C31.0023 10.0222 31.0023 10.023 31.0023 10.0239ZM3.46636 10.4703C3.41164 21.169 4.783 30.8765 16.0701 35.3366C16.1811 35.3805 16.6222 35.5321 16.7045 35.5321C16.7868 35.5321 17.228 35.3805 17.3389 35.3366C28.6261 30.8766 29.9974 21.1688 29.9428 10.4703C29.9426 10.4378 29.9214 10.4104 29.89 10.402C24.6905 9.00272 21.5636 7.46168 16.742 4.4796C16.7185 4.46504 16.6906 4.46504 16.6671 4.4796C11.8456 7.46168 8.7186 9.00272 3.51908 10.402C3.48764 10.4104 3.46644 10.4378 3.46636 10.4703Z" fill="#8C55D4"/>
</svg>
