<svg width="80" height="64" viewBox="0 0 80 64" fill="none" xmlns="http://www.w3.org/2000/svg">
<path d="M71.5378 15.0875L67.9411 14.9746C66.7059 15.5983 65.3201 15.9418 63.8775 15.9418C62.8143 15.9418 61.7738 15.755 60.777 15.3878C59.9654 15.834 59.3018 16.5189 58.8827 17.3512L52.937 27.4534C49.8398 29.7477 41.2825 36.0732 41.0469 36.2631C41.809 36.2939 43.465 35.802 45.3603 36.9324C45.0045 34.3324 46.5192 31.7584 49.0946 30.8722L62.4184 26.2876L65.1446 22.6081L62.804 28.794L50.1762 33.0033C48.4232 33.5876 47.4757 35.4825 48.06 37.2355C48.6454 38.9919 50.5425 39.9352 52.2923 39.3517L66.4285 34.6397C67.383 34.3216 68.1437 33.5906 68.4999 32.6496L71.4387 24.8831L70.7812 33.1208C70.6705 34.5083 69.7405 35.6342 68.504 36.0616C64.7268 37.3609 57.6457 39.7603 57.6457 39.7603V43.1545L52.2968 56.9537C51.9861 57.7552 51.948 58.6366 52.1883 59.4618L57.3433 77.1783C57.9474 79.2543 60.1201 80.4471 62.195 79.843C64.2707 79.239 65.4638 77.0669 64.8597 74.9912L60.0749 58.5472L65.2613 45.1671H67.503C67.503 45.1671 67.5121 67.4409 67.503 76.0857C67.503 78.2474 69.1775 79.9997 71.3391 79.9997C73.5007 79.9997 75.2531 78.2473 75.2531 76.0857C75.2567 67.5994 75.2567 29.1282 75.2531 19.8225C75.3328 17.2871 74.0734 15.1671 71.5378 15.0875Z" fill="#8C55D4"/>
<path d="M61.1325 13.2871C62.0281 13.6745 62.9611 13.8579 63.8787 13.8579C66.5583 13.8579 69.1091 12.2943 70.2403 9.67846C71.7588 6.16702 70.1432 2.08934 66.6318 0.57079C65.736 0.183457 64.803 0 63.8856 0C61.206 0 58.6552 1.56363 57.524 4.17946C56.0054 7.6909 57.621 11.7686 61.1325 13.2871Z" fill="#8C55D4"/>
<path d="M16.7057 61.3956C13.7947 61.3956 11.1665 60.1697 9.30411 58.2094C6.52273 60.4558 4.74219 63.892 4.74219 67.7457C4.74219 74.5134 10.2285 79.9997 16.9961 79.9997C23.7638 79.9997 29.25 74.5134 29.25 67.7457C29.25 65.421 28.6026 63.2474 27.4781 61.3954C25.075 61.3956 18.9325 61.3956 16.7057 61.3956Z" fill="#8C55D4"/>
<path d="M23.9307 28.3508C26.5708 27.5197 28.5665 25.1469 28.7743 22.2188C29.0459 18.3935 26.1649 15.0725 22.3398 14.8011C18.5145 14.5295 15.1934 17.4104 14.922 21.2356C14.7199 24.0832 16.2654 26.6505 18.6464 27.8892C19.4638 28.3144 20.3789 28.5839 21.3565 28.6533C22.2534 28.7171 23.122 28.6054 23.9307 28.3508Z" fill="#8C55D4"/>
<path d="M25.9092 51.4477V45.6594L20.9864 39.5857L27.9829 44.7958C28.5687 45.2322 29.293 45.4527 30.0346 45.4093L42.8069 44.6541C44.5306 44.5522 45.8453 43.0723 45.7432 41.3488C45.6411 39.6253 44.1618 38.3118 42.4378 38.4124L30.8032 39.1002L24.8605 34.6747L25.9092 35.0995V34.335C25.9092 31.9215 23.9528 29.965 21.5392 29.965H16.5198C12.1273 29.965 8.56641 33.5259 8.56641 37.9184V51.1807C8.56641 55.6759 12.2104 59.265 16.7056 59.265H29.1466L33.2078 77.0681C33.6597 79.0837 35.661 80.3624 37.6891 79.9082C39.7109 79.4551 40.9824 77.4487 40.5292 75.4269L35.8109 54.3788C35.4268 52.6655 33.9059 51.4477 32.1501 51.4477C31.1838 51.4477 27.5462 51.4477 25.9092 51.4477Z" fill="#8C55D4"/>
</svg>
