<svg width="20" height="20" viewBox="0 0 20 20" fill="none" xmlns="http://www.w3.org/2000/svg">
<path d="M14.8244 18.9584H5.17435C2.89102 18.9584 1.04102 17.1001 1.04102 14.8167V8.64173C1.04102 7.50839 1.74102 6.08339 2.64102 5.38339L7.13268 1.88339C8.48268 0.833393 10.641 0.783393 12.041 1.76673L17.191 5.37506C18.1827 6.06673 18.9577 7.55006 18.9577 8.75839V14.8251C18.9577 17.1001 17.1077 18.9584 14.8244 18.9584ZM7.89935 2.86673L3.40768 6.36673C2.81602 6.83339 2.29102 7.89173 2.29102 8.64173V14.8167C2.29102 16.4084 3.58268 17.7084 5.17435 17.7084H14.8244C16.416 17.7084 17.7077 16.4167 17.7077 14.8251V8.75839C17.7077 7.95839 17.1327 6.85006 16.4743 6.40006L11.3243 2.79173C10.3743 2.12506 8.80768 2.15839 7.89935 2.86673Z" fill="#959799"/>
<path d="M10 15.625C9.65833 15.625 9.375 15.3417 9.375 15V12.5C9.375 12.1583 9.65833 11.875 10 11.875C10.3417 11.875 10.625 12.1583 10.625 12.5V15C10.625 15.3417 10.3417 15.625 10 15.625Z" fill="#959799"/>
</svg>
