<svg width="20" height="20" viewBox="0 0 20 20" fill="none" xmlns="http://www.w3.org/2000/svg">
<path d="M8.14863 15.8157L8.14865 15.8156L8.14499 15.8109C8.01632 15.6444 7.83914 15.5181 7.67087 15.434C7.50349 15.3503 7.29487 15.2833 7.08268 15.2833H5.83268C3.80687 15.2833 2.16602 13.6469 2.16602 11.6333V10.8V5.81663C2.16602 3.80306 3.80687 2.16663 5.83268 2.16663H14.166C16.1918 2.16663 17.8327 3.80306 17.8327 5.81663V11.6333C17.8327 13.6469 16.1918 15.2833 14.166 15.2833H12.916C12.4991 15.2833 12.1027 15.4832 11.8513 15.8141L11.8501 15.8157L10.6001 17.474L10.5993 17.475C10.4049 17.7342 10.1827 17.825 9.99935 17.825C9.81599 17.825 9.59379 17.7342 9.39935 17.475L9.39863 17.474L8.14863 15.8157ZM5.33268 9.16663C5.33268 9.89783 5.91995 10.5 6.66602 10.5C7.41208 10.5 7.99935 9.89784 7.99935 9.16663C7.99935 8.43215 7.40049 7.83329 6.66602 7.83329C5.93154 7.83329 5.33268 8.43215 5.33268 9.16663ZM8.66602 9.16663C8.66602 9.89784 9.25328 10.5 9.99935 10.5C10.7454 10.5 11.3327 9.89783 11.3327 9.16663C11.3327 8.43215 10.7338 7.83329 9.99935 7.83329C9.26487 7.83329 8.66602 8.43215 8.66602 9.16663ZM11.9993 9.16663C11.9993 9.89783 12.5866 10.5 13.3327 10.5C14.0787 10.5 14.666 9.89784 14.666 9.16663C14.666 8.43215 14.0672 7.83329 13.3327 7.83329C12.5982 7.83329 11.9993 8.43215 11.9993 9.16663Z" fill="#2B2E33" stroke="#2B2E33"/>
</svg>
