<svg width="20" height="20" viewBox="0 0 20 20" fill="none" xmlns="http://www.w3.org/2000/svg">
<path d="M7.18075 15.968L7.1322 15.9583H7.08268H6.66602C4.94685 15.9583 3.70008 15.7186 2.87301 15.0201C2.06568 14.3382 1.54102 13.1132 1.54102 10.8333V6.66666C1.54102 4.90877 2.00341 3.64887 2.82582 2.82646C3.64823 2.00405 4.90813 1.54166 6.66602 1.54166H13.3327C15.0906 1.54166 16.3505 2.00405 17.1729 2.82646C17.9953 3.64887 18.4577 4.90877 18.4577 6.66666V10.8333C18.4577 12.5912 17.9953 13.8511 17.1729 14.6735C16.3505 15.4959 15.0906 15.9583 13.3327 15.9583H12.916C12.6726 15.9583 12.4821 16.0814 12.3652 16.2216L12.357 16.2314L12.3493 16.2417L11.1001 17.9073C11.1001 17.9074 11.1 17.9075 11.0999 17.9076C10.7978 18.308 10.3966 18.5083 9.99935 18.5083C9.60212 18.5083 9.20087 18.308 8.89882 17.9076C8.89873 17.9075 8.89865 17.9074 8.89856 17.9073L7.64935 16.2417L7.24935 16.5417L7.64935 16.2417C7.58875 16.1609 7.51712 16.1133 7.48941 16.0954C7.45165 16.0711 7.41452 16.052 7.38448 16.0379C7.33241 16.0135 7.25639 15.9832 7.18075 15.968ZM9.09934 17.7583L9.10143 17.7611C9.3157 18.0427 9.62749 18.2458 9.99935 18.2458C10.3712 18.2458 10.683 18.0427 10.8973 17.7611L10.8993 17.7583L12.1493 16.0917C12.3299 15.8509 12.6151 15.7083 12.916 15.7083H13.3327C14.8927 15.7083 16.1406 15.3451 16.9925 14.4931C17.8444 13.6412 18.2077 12.3933 18.2077 10.8333V6.66666C18.2077 5.10666 17.8444 3.85879 16.9925 3.00685C16.1406 2.15492 14.8927 1.79166 13.3327 1.79166H6.66602C5.10602 1.79166 3.85815 2.15492 3.00621 3.00685C2.15428 3.85879 1.79102 5.10666 1.79102 6.66666V10.8333C1.79102 12.7388 2.10958 14.0327 2.99208 14.8088C3.85718 15.5696 5.13516 15.7083 6.66602 15.7083H7.08268C7.34927 15.7083 7.68512 15.875 7.85001 16.0925C7.85018 16.0928 7.85035 16.093 7.85052 16.0932L9.09934 17.7583Z" fill="#292D32" stroke="#959799"/>
<path d="M9.99935 9.50001C9.81208 9.50001 9.66602 9.35214 9.66602 9.16668C9.66602 8.98449 9.81716 8.83334 9.99935 8.83334C10.1815 8.83334 10.3327 8.98449 10.3327 9.16668C10.3327 9.35214 10.1866 9.50001 9.99935 9.50001Z" fill="#292D32" stroke="#959799"/>
<path d="M13.3333 9.50001C13.1461 9.50001 13 9.35214 13 9.16668C13 8.98449 13.1511 8.83334 13.3333 8.83334C13.5155 8.83334 13.6667 8.98449 13.6667 9.16668C13.6667 9.35214 13.5206 9.50001 13.3333 9.50001Z" fill="#292D32" stroke="#959799"/>
<path d="M6.66732 9.50001C6.48005 9.50001 6.33398 9.35214 6.33398 9.16668C6.33398 8.98449 6.48513 8.83334 6.66732 8.83334C6.84951 8.83334 7.00065 8.98449 7.00065 9.16668C7.00065 9.35214 6.85459 9.50001 6.66732 9.50001Z" fill="#292D32" stroke="#959799"/>
</svg>
