<svg width="28" height="28" viewBox="0 0 28 28" fill="none" xmlns="http://www.w3.org/2000/svg">
<rect width="28" height="28" rx="14" fill="#F57314" fill-opacity="0.17"/>
<path d="M22 14C22 9.58172 18.4183 6 14 6C9.58172 6 6 9.58172 6 14C6 18.4183 9.58172 22 14 22C18.4183 22 22 18.4183 22 14ZM13.5081 12.9101C13.5504 12.6769 13.7545 12.5 14 12.5C14.2455 12.5 14.4496 12.6769 14.4919 12.9101L14.5 13V17.5021L14.4919 17.592C14.4496 17.8253 14.2455 18.0021 14 18.0021C13.7545 18.0021 13.5504 17.8253 13.5081 17.592L13.5 17.5021V13L13.5081 12.9101ZM13.25 10.75C13.25 10.3358 13.5858 9.99999 14 9.99999C14.4142 9.99999 14.75 10.3358 14.75 10.75C14.75 11.1642 14.4142 11.5 14 11.5C13.5858 11.5 13.25 11.1642 13.25 10.75Z" fill="#F58E14"/>
</svg>
