<svg width="20" height="20" viewBox="0 0 20 20" fill="none" xmlns="http://www.w3.org/2000/svg">
<path d="M5.5 16.43V15.93H5C3.61362 15.93 2.49716 15.47 1.72855 14.7014C0.959943 13.9328 0.5 12.8164 0.5 11.43V5.42999C0.5 4.04362 0.959943 2.92716 1.72855 2.15855C2.49716 1.38994 3.61362 0.929993 5 0.929993H15C16.3864 0.929993 17.5028 1.38994 18.2714 2.15855C19.0401 2.92716 19.5 4.04362 19.5 5.42999V11.43C19.5 12.8164 19.0401 13.9328 18.2714 14.7014C17.5028 15.47 16.3864 15.93 15 15.93H11H10.8489L10.7231 16.0137L6.27308 18.9737L6.27306 18.9737L6.26833 18.9769C5.94792 19.1953 5.5 18.9676 5.5 18.56V16.43ZM11.5374 8.86602L11.5374 8.86603L11.5404 8.86395L11.55 8.85744C11.8726 8.63905 12.91 7.93682 12.91 6.52999C12.91 4.92385 11.6061 3.61999 10 3.61999C8.39386 3.61999 7.09 4.92385 7.09 6.52999C7.09 7.21613 7.65386 7.77999 8.34 7.77999C9.02614 7.77999 9.59 7.21613 9.59 6.52999C9.59 6.30613 9.77614 6.11999 10 6.11999C10.2239 6.11999 10.41 6.30613 10.41 6.52999C10.41 6.55593 10.4071 6.56533 10.4068 6.56625C10.4066 6.56709 10.4062 6.56805 10.4054 6.56975C10.4045 6.57156 10.4023 6.57563 10.3975 6.58222C10.374 6.61504 10.3112 6.68009 10.1401 6.7957L10.1401 6.79568L10.1367 6.79797C10.1301 6.80253 10.1231 6.80731 10.1158 6.8123C9.77623 7.04508 8.75 7.74845 8.75 9.15999V9.36999C8.75 10.0024 9.22908 10.531 9.8414 10.6098C9.21833 10.688 8.75 11.2206 8.75 11.85C8.75 12.5318 9.29952 13.1 10 13.1C10.7005 13.1 11.25 12.5318 11.25 11.85C11.25 11.2206 10.7817 10.688 10.1586 10.6098C10.7709 10.531 11.25 10.0024 11.25 9.36999V9.15999C11.25 9.12588 11.2536 9.11162 11.2548 9.10769C11.2554 9.10543 11.2568 9.10042 11.2653 9.08855C11.2896 9.0546 11.3546 8.98784 11.5374 8.86602Z" fill="#4E5155" stroke="#4E5155"/>
</svg>
