<svg width="28" height="28" viewBox="0 0 28 28" fill="none" xmlns="http://www.w3.org/2000/svg">
<rect width="28" height="28" rx="14" fill="#F51414" fill-opacity="0.17"/>
<path d="M14 6C18.4183 6 22 9.58172 22 14C22 18.4183 18.4183 22 14 22C9.58172 22 6 18.4183 6 14C6 9.58172 9.58172 6 14 6ZM11.8094 11.1137C11.6146 10.9787 11.3451 10.998 11.1716 11.1716L11.1137 11.2408C10.9787 11.4357 10.998 11.7051 11.1716 11.8787L13.2929 14L11.1716 16.1213L11.1137 16.1906C10.9787 16.3854 10.998 16.6549 11.1716 16.8284L11.2408 16.8863C11.4357 17.0213 11.7051 17.002 11.8787 16.8284L14 14.7071L16.1213 16.8284L16.1906 16.8863C16.3854 17.0213 16.6549 17.002 16.8284 16.8284L16.8863 16.7592C17.0213 16.5643 17.002 16.2949 16.8284 16.1213L14.7071 14L16.8284 11.8787L16.8863 11.8094C17.0213 11.6146 17.002 11.3451 16.8284 11.1716L16.7592 11.1137C16.5643 10.9787 16.2949 10.998 16.1213 11.1716L14 13.2929L11.8787 11.1716L11.8094 11.1137Z" fill="#F73D3D"/>
</svg>
