<svg width="20" height="20" viewBox="0 0 20 20" fill="none" xmlns="http://www.w3.org/2000/svg">
<path d="M9.58268 17.625C5.15049 17.625 1.54102 14.0155 1.54102 9.58329C1.54102 5.1511 5.15049 1.54163 9.58268 1.54163C14.0149 1.54163 17.6243 5.1511 17.6243 9.58329C17.6243 14.0155 14.0149 17.625 9.58268 17.625ZM9.58268 1.79163C5.28117 1.79163 1.79102 5.29086 1.79102 9.58329C1.79102 13.8757 5.28117 17.375 9.58268 17.375C13.8842 17.375 17.3743 13.8757 17.3743 9.58329C17.3743 5.29086 13.8842 1.79163 9.58268 1.79163Z" fill="#959799" stroke="#959799"/>
<path d="M18.3326 18.4583C18.3149 18.4583 18.2993 18.4551 18.286 18.4497C18.2732 18.4445 18.2591 18.4361 18.2444 18.4214L16.5778 16.7547C16.5562 16.7332 16.543 16.7025 16.543 16.6666C16.543 16.6308 16.5562 16.6 16.5778 16.5785C16.5993 16.557 16.63 16.5437 16.6659 16.5437C16.7017 16.5437 16.7325 16.557 16.754 16.5785L18.4207 18.2452C18.4422 18.2667 18.4555 18.2974 18.4555 18.3333C18.4555 18.3691 18.4422 18.3999 18.4207 18.4214C18.406 18.4361 18.3919 18.4445 18.3791 18.4497C18.3658 18.4551 18.3502 18.4583 18.3326 18.4583Z" fill="#959799" stroke="#959799"/>
</svg>
