<svg width="20" height="20" viewBox="0 0 20 20" fill="none" xmlns="http://www.w3.org/2000/svg">
<path d="M16.9993 9.58332C16.9993 13.6794 13.6788 17 9.58268 17C5.48657 17 2.16602 13.6794 2.16602 9.58332C2.16602 5.48721 5.48657 2.16666 9.58268 2.16666C13.6788 2.16666 16.9993 5.48721 16.9993 9.58332Z" fill="#2B2E33" stroke="#2B2E33"/>
<path d="M17.7501 17.8333C17.7257 17.8333 17.7051 17.8228 17.6953 17.8131L16.1454 16.2631C16.1198 16.2376 16.1106 16.1851 16.1482 16.1425C16.175 16.1188 16.2263 16.1116 16.2677 16.1497L17.8132 17.6952C17.8375 17.7195 17.8471 17.7681 17.8156 17.8095C17.7925 17.8268 17.7683 17.8333 17.7501 17.8333Z" fill="#2B2E33" stroke="#2B2E33"/>
</svg>
