<svg width="40" height="40" viewBox="0 0 40 40" fill="none" xmlns="http://www.w3.org/2000/svg">
<circle cx="20" cy="20" r="20" fill="#8C55D4"/>
<path d="M29.4181 19.9857C29.4258 19.3884 29.1023 18.8395 28.5769 18.5513L16.3337 11.8246C15.7853 11.5146 15.1389 11.5527 14.6221 11.9056C14.0959 12.2643 13.8266 13.1185 13.9737 13.7354L15.1166 18.5239C15.234 19.0149 15.6734 19.3607 16.179 19.3585L22.9924 19.3374C23.3413 19.3304 23.6242 19.6134 23.6172 19.9623C23.6162 20.3052 23.3374 20.584 22.9885 20.591L16.1687 20.6069C15.6631 20.6078 15.2215 20.9551 15.1011 21.4469L13.9177 26.2545C13.774 26.8226 13.9378 27.3898 14.3387 27.7906C14.3858 27.8378 14.4389 27.8909 14.492 27.9321C15.0111 28.3326 15.691 28.3837 16.2714 28.0744L28.5562 21.4134C29.0834 21.1339 29.4103 20.5829 29.4181 19.9857Z" fill="white"/>
</svg>
