<svg width="25" height="25" viewBox="0 0 25 25" fill="none" xmlns="http://www.w3.org/2000/svg">
<path d="M18.7498 4.00865C19.164 4.00877 19.5 3.67308 19.5 3.25886C19.5 2.84465 19.1644 2.50877 18.7502 2.50865L5.75022 2.50488C5.336 2.50476 5 2.84045 5 3.25467C5 3.66888 5.33557 4.00476 5.74978 4.00488L18.7498 4.00865ZM12.1482 22.4969L12.25 22.5037C12.6297 22.5037 12.9435 22.2215 12.9932 21.8555L13 21.7537L12.999 8.0687L16.7208 11.789C16.9871 12.0553 17.4038 12.0794 17.6974 11.8615L17.7815 11.7889C18.0477 11.5226 18.0719 11.106 17.854 10.8124L17.7814 10.7283L12.7837 5.73165C12.5176 5.46556 12.1012 5.44125 11.8076 5.65882L11.7235 5.73134L6.72003 10.728C6.42694 11.0206 6.42661 11.4955 6.71931 11.7886C6.98539 12.0551 7.40204 12.0796 7.6958 11.8619L7.77997 11.7893L11.499 8.0757L11.5 21.7537C11.5 22.1334 11.7822 22.4472 12.1482 22.4969Z" fill="#8C55D4"/>
</svg>
