<svg width="55" height="56" viewBox="0 0 55 56" fill="none" xmlns="http://www.w3.org/2000/svg">
<path d="M27.4995 0.560034C6.37616 0.560034 -6.82591 23.4267 3.73576 41.72C14.2974 60.0134 40.7016 60.0134 51.2632 41.72C53.6716 37.5486 54.9395 32.8168 54.9395 28C54.9235 12.852 42.6476 0.576046 27.4995 0.560034ZM39.5467 23.1611L24.7713 37.9365C23.9468 38.7619 22.6091 38.7619 21.7846 37.9365L15.4523 31.6042C14.3027 30.4546 14.8287 28.4916 16.399 28.0708C17.1279 27.8755 17.9055 28.0839 18.439 28.6174L23.2779 33.459L36.56 20.1744C37.7096 19.0248 39.6725 19.5507 40.0933 21.1211C40.2886 21.8499 40.0802 22.6276 39.5467 23.1611Z" fill="#00C67E"/>
</svg>
