<svg width="201" height="187" viewBox="0 0 201 187" fill="none" xmlns="http://www.w3.org/2000/svg">
<g opacity="0.4">
<path d="M230.443 51.2554C217.631 0.536621 171.699 -37 117 -37C111.034 -37 105.172 -36.5532 99.4456 -35.6914C110.549 -15.0229 127.128 2.66211 149.201 17.2534C171.079 31.7163 198.218 43.0488 230.443 51.2554Z" fill="#9F71DB"/>
<path d="M95.2625 -34.9844C90.7692 -34.1401 86.3666 -33.0391 82.0703 -31.6968C92.2731 -2.69189 111.637 21.3711 140.201 40.2534C164.858 56.5532 196.197 68.8774 233.968 77.231C233.786 69.3799 232.83 61.7192 231.174 54.3237C197.105 46.0371 168.558 34.3511 145.731 19.2617C123.193 4.36279 106.376 -13.7583 95.2625 -34.9844Z" fill="#9F71DB"/>
<path d="M68.1239 -26.333C71.4354 -27.8574 74.8304 -29.2319 78.3 -30.4478C88.4492 -1.10645 107.913 23.2114 136.731 42.2617C162.152 59.0659 194.665 71.6484 234 80.0166C233.999 87.4336 233.308 94.689 231.987 101.723C191.065 93.3735 157.37 80.5522 131.201 63.2534C97.0345 40.6675 76.0308 10.6694 68.1239 -26.333Z" fill="#9F71DB"/>
<path d="M64.5455 -24.6108C61.7933 -23.228 59.1034 -21.7402 56.4807 -20.1519C61.1243 24.6641 82.9979 60.3384 122.201 86.2534C148.794 103.833 183.158 116.788 224.981 125.125C227.759 118.485 229.942 111.536 231.464 104.342C189.215 96.002 154.531 82.9775 127.731 65.2617C93.4697 42.6128 72.4298 12.5186 64.5455 -24.6108Z" fill="#9F71DB"/>
<path d="M46.5562 -13.4248C48.6418 -15 50.7819 -16.5063 52.973 -17.9419C57.6918 26.7739 79.5784 62.3794 118.731 88.2617C145.834 106.178 181.001 119.296 223.901 127.623C220.78 134.619 216.992 141.252 212.619 147.441C172.313 139.087 139.078 126.359 113.201 109.253C69.3645 80.2754 47.1958 39.0947 46.5562 -13.4248Z" fill="#9F71DB"/>
<path d="M43.0273 -10.6523C41.3087 -9.24805 39.6306 -7.79639 37.9954 -6.29834C34.0327 53.8511 56.0399 100.417 104.201 132.253C127.942 147.947 157.876 159.956 193.782 168.283C200.121 162.765 205.86 156.576 210.888 149.826C169.803 141.469 135.984 128.616 109.731 111.262C66.0973 82.4175 43.9081 41.4961 43.0273 -10.6523Z" fill="#9F71DB"/>
<path d="M30.5574 1.15283C31.7916 -0.199707 33.0573 -1.52295 34.353 -2.81592C30.8862 56.6133 52.9525 102.677 100.731 134.262C124.662 150.081 154.879 162.16 191.156 170.502C183.458 176.817 174.941 182.169 165.787 186.375C138.193 178.466 114.624 168.093 95.2009 155.253C42.9677 120.725 21.498 68.8711 30.5574 1.15283Z" fill="#9F71DB"/>
<path d="M26.6805 5.62109C25.7871 6.70459 24.9128 7.80518 24.0581 8.9209C9.50024 84.1328 30.1177 141.179 86.2009 178.253C96.7054 185.197 108.422 191.42 121.333 196.921C135.555 196.404 149.129 193.347 161.616 188.192C134.327 180.304 110.993 169.995 91.7314 157.262C40.1189 123.143 18.5106 72.1279 26.6805 5.62109Z" fill="#9F71DB"/>
<path d="M18.3212 17.1118C18.7871 16.3823 19.2607 15.6582 19.7423 14.9399C6.72974 88.1626 27.6345 143.84 82.7314 180.262C91.9899 186.382 102.189 191.942 113.317 196.943C85.9797 196.098 61.0048 185.875 41.5004 169.383C10.481 131.176 2.8064 80.0967 18.3212 17.1118Z" fill="#9F71DB"/>
<path d="M13.0936 26.1655C4.72742 42.2808 0 60.5884 0 80C0 107.361 9.39221 132.529 25.1285 152.455C6.0188 118.441 2.0343 76.1758 13.0936 26.1655Z" fill="#9F71DB"/>
<path d="M230.443 51.2554C217.631 0.536621 171.699 -37 117 -37C111.034 -37 105.172 -36.5532 99.4456 -35.6914C110.549 -15.0229 127.128 2.66211 149.201 17.2534C171.079 31.7163 198.218 43.0488 230.443 51.2554Z" fill="#9F71DB"/>
<path d="M95.2625 -34.9844C90.7692 -34.1401 86.3666 -33.0391 82.0703 -31.6968C92.2731 -2.69189 111.637 21.3711 140.201 40.2534C164.858 56.5532 196.197 68.8774 233.968 77.231C233.786 69.3799 232.83 61.7192 231.174 54.3237C197.105 46.0371 168.558 34.3511 145.731 19.2617C123.193 4.36279 106.376 -13.7583 95.2625 -34.9844Z" fill="#9F71DB"/>
<path d="M68.1239 -26.333C71.4354 -27.8574 74.8304 -29.2319 78.3 -30.4478C88.4492 -1.10645 107.913 23.2114 136.731 42.2617C162.152 59.0659 194.665 71.6484 234 80.0166C233.999 87.4336 233.308 94.689 231.987 101.723C191.065 93.3735 157.37 80.5522 131.201 63.2534C97.0345 40.6675 76.0308 10.6694 68.1239 -26.333Z" fill="#9F71DB"/>
<path d="M64.5455 -24.6108C61.7933 -23.228 59.1034 -21.7402 56.4807 -20.1519C61.1243 24.6641 82.9979 60.3384 122.201 86.2534C148.794 103.833 183.158 116.788 224.981 125.125C227.759 118.485 229.942 111.536 231.464 104.342C189.215 96.002 154.531 82.9775 127.731 65.2617C93.4697 42.6128 72.4298 12.5186 64.5455 -24.6108Z" fill="#9F71DB"/>
<path d="M46.5562 -13.4248C48.6418 -15 50.7819 -16.5063 52.973 -17.9419C57.6918 26.7739 79.5784 62.3794 118.731 88.2617C145.834 106.178 181.001 119.296 223.901 127.623C220.78 134.619 216.992 141.252 212.619 147.441C172.313 139.087 139.078 126.359 113.201 109.253C69.3645 80.2754 47.1958 39.0947 46.5562 -13.4248Z" fill="#9F71DB"/>
<path d="M43.0273 -10.6523C41.3087 -9.24805 39.6306 -7.79639 37.9954 -6.29834C34.0327 53.8511 56.0399 100.417 104.201 132.253C127.942 147.947 157.876 159.956 193.782 168.283C200.121 162.765 205.86 156.576 210.888 149.826C169.803 141.469 135.984 128.616 109.731 111.262C66.0973 82.4175 43.9081 41.4961 43.0273 -10.6523Z" fill="#9F71DB"/>
<path d="M30.5574 1.15283C31.7916 -0.199707 33.0573 -1.52295 34.353 -2.81592C30.8862 56.6133 52.9525 102.677 100.731 134.262C124.662 150.081 154.879 162.16 191.156 170.502C183.458 176.817 174.941 182.169 165.787 186.375C138.193 178.466 114.624 168.093 95.2009 155.253C42.9677 120.725 21.498 68.8711 30.5574 1.15283Z" fill="#9F71DB"/>
<path d="M26.6805 5.62109C25.7871 6.70459 24.9128 7.80518 24.0581 8.9209C9.50024 84.1328 30.1177 141.179 86.2009 178.253C96.7054 185.197 108.422 191.42 121.333 196.921C135.555 196.404 149.129 193.347 161.616 188.192C134.327 180.304 110.993 169.995 91.7314 157.262C40.1189 123.143 18.5106 72.1279 26.6805 5.62109Z" fill="#9F71DB"/>
<path d="M18.3212 17.1118C18.7871 16.3823 19.2607 15.6582 19.7423 14.9399C6.72974 88.1626 27.6345 143.84 82.7314 180.262C91.9899 186.382 102.189 191.942 113.317 196.943C85.9797 196.098 61.0048 185.875 41.5004 169.383C10.481 131.176 2.8064 80.0967 18.3212 17.1118Z" fill="#9F71DB"/>
<path d="M13.0936 26.1655C4.72742 42.2808 0 60.5884 0 80C0 107.361 9.39221 132.529 25.1285 152.455C6.0188 118.441 2.0343 76.1758 13.0936 26.1655Z" fill="#9F71DB"/>
</g>
</svg>
