<svg width="21" height="20" viewBox="0 0 21 20" fill="none" xmlns="http://www.w3.org/2000/svg">
<path d="M5.64491 5.7627L5.64492 5.76278L5.65339 5.76157C5.87154 5.7304 6.10508 5.70825 6.33268 5.70825H14.666C14.8538 5.70825 15.0833 5.71624 15.3138 5.75226L15.3238 5.75381L15.3338 5.75496C16.4473 5.8833 17.3455 6.3656 17.9669 7.08921C18.5894 7.81408 18.9577 8.80899 18.9577 9.99992V14.1666C18.9577 15.4854 18.5171 16.5501 17.7833 17.2839C17.0495 18.0176 15.9848 18.4583 14.666 18.4583H6.33268C5.01389 18.4583 3.94917 18.0176 3.2154 17.2839C2.48164 16.5501 2.04102 15.4854 2.04102 14.1666V9.99992C2.04102 8.82091 2.40343 7.83384 3.02031 7.11094C3.63617 6.38925 4.52943 5.90261 5.64491 5.7627ZM6.33268 5.95825C6.10503 5.95825 5.89098 5.97722 5.68543 6.00401C4.65971 6.13473 3.80097 6.57926 3.20074 7.28974C2.60191 7.99856 2.29102 8.93547 2.29102 9.99992V14.1666C2.29102 15.3515 2.67668 16.3719 3.40205 17.0972C4.12741 17.8226 5.14779 18.2083 6.33268 18.2083H14.666C15.8509 18.2083 16.8713 17.8226 17.5967 17.0972C18.322 16.3719 18.7077 15.3515 18.7077 14.1666V9.99992C18.7077 8.92659 18.3923 7.98265 17.7861 7.27144C17.1807 6.56101 16.3162 6.11961 15.2859 5.99638C15.05 5.95821 14.8442 5.95823 14.6764 5.95825L14.666 5.95825H6.33268Z" fill="#959799" stroke="#959799"/>
<path d="M5.54332 5.83064L5.54338 5.83067L5.54693 5.82357C5.66233 5.59277 5.82804 5.36323 6.04742 5.15093L6.04748 5.15098L6.05381 5.14464L8.76053 2.42957C8.76079 2.42931 8.76105 2.42906 8.76131 2.4288C9.9492 1.2489 11.8826 1.24867 13.0708 2.42811L14.5275 3.9015L14.5275 3.90153L14.5319 3.90592C15.0616 4.42846 15.3811 5.12714 15.4169 5.86417C15.4187 5.91129 15.4005 5.94616 15.3772 5.96669L15.708 6.34161L15.3772 5.9667C15.3422 5.99765 15.3031 6.00375 15.2808 5.9997L15.2732 5.99831L15.2655 5.99716C15.0654 5.96715 14.8635 5.95829 14.6664 5.95829H6.33305C6.10511 5.95829 5.89083 5.97731 5.68505 6.00415L5.65375 6.00823C5.61677 6.00718 5.5821 5.99237 5.55088 5.9515C5.52568 5.91648 5.5217 5.87221 5.54332 5.83064ZM6.6942 4.85671L5.85204 5.70829H7.04971H14.5164H15.2429L14.9834 5.02972C14.8467 4.67224 14.6296 4.35634 14.3543 4.08082C14.354 4.08046 14.3536 4.0801 14.3533 4.07975L12.8886 2.59842L12.8886 2.5984L12.8849 2.59476C11.7975 1.51748 10.0264 1.51981 8.93281 2.59312L8.93277 2.59308L8.92753 2.59839L6.6942 4.85671Z" fill="#959799" stroke="#959799"/>
<mask id="path-3-inside-1_1570_982" fill="white">
<path d="M18.8327 14.3751H16.3327C15.066 14.3751 14.041 13.3501 14.041 12.0834C14.041 10.8167 15.066 9.79175 16.3327 9.79175H18.8327C19.1743 9.79175 19.4577 10.0751 19.4577 10.4167C19.4577 10.7584 19.1743 11.0417 18.8327 11.0417H16.3327C15.7577 11.0417 15.291 11.5084 15.291 12.0834C15.291 12.6584 15.7577 13.1251 16.3327 13.1251H18.8327C19.1743 13.1251 19.4577 13.4084 19.4577 13.7501C19.4577 14.0917 19.1743 14.3751 18.8327 14.3751Z"/>
</mask>
<path d="M18.8327 14.3751H16.3327C15.066 14.3751 14.041 13.3501 14.041 12.0834C14.041 10.8167 15.066 9.79175 16.3327 9.79175H18.8327C19.1743 9.79175 19.4577 10.0751 19.4577 10.4167C19.4577 10.7584 19.1743 11.0417 18.8327 11.0417H16.3327C15.7577 11.0417 15.291 11.5084 15.291 12.0834C15.291 12.6584 15.7577 13.1251 16.3327 13.1251H18.8327C19.1743 13.1251 19.4577 13.4084 19.4577 13.7501C19.4577 14.0917 19.1743 14.3751 18.8327 14.3751Z" fill="#292D32"/>
<path d="M18.8327 12.3751H16.3327V16.3751H18.8327V12.3751ZM16.3327 12.3751C16.1706 12.3751 16.041 12.2455 16.041 12.0834H12.041C12.041 14.4547 13.9614 16.3751 16.3327 16.3751V12.3751ZM16.041 12.0834C16.041 11.9213 16.1706 11.7917 16.3327 11.7917V7.79175C13.9614 7.79175 12.041 9.71218 12.041 12.0834H16.041ZM16.3327 11.7917H18.8327V7.79175H16.3327V11.7917ZM18.8327 11.7917C18.0698 11.7917 17.4577 11.1797 17.4577 10.4167H21.4577C21.4577 8.97051 20.2789 7.79175 18.8327 7.79175V11.7917ZM17.4577 10.4167C17.4577 9.65384 18.0698 9.04175 18.8327 9.04175V13.0417C20.2789 13.0417 21.4577 11.863 21.4577 10.4167H17.4577ZM18.8327 9.04175H16.3327V13.0417H18.8327V9.04175ZM16.3327 9.04175C14.6531 9.04175 13.291 10.4038 13.291 12.0834H17.291C17.291 12.613 16.8623 13.0417 16.3327 13.0417V9.04175ZM13.291 12.0834C13.291 13.763 14.6531 15.1251 16.3327 15.1251V11.1251C16.8623 11.1251 17.291 11.5538 17.291 12.0834H13.291ZM16.3327 15.1251H18.8327V11.1251H16.3327V15.1251ZM18.8327 15.1251C18.0698 15.1251 17.4577 14.513 17.4577 13.7501H21.4577C21.4577 12.3038 20.2789 11.1251 18.8327 11.1251V15.1251ZM17.4577 13.7501C17.4577 12.9872 18.0698 12.3751 18.8327 12.3751V16.3751C20.2789 16.3751 21.4577 15.1963 21.4577 13.7501H17.4577Z" fill="#959799" mask="url(#path-3-inside-1_1570_982)"/>
</svg>
