<svg width="21" height="20" viewBox="0 0 21 20" fill="none" xmlns="http://www.w3.org/2000/svg">
<path d="M16.3734 11.8199L16.3735 11.8199L16.3726 11.8101C16.363 11.7116 16.401 11.6143 16.4701 11.5452L16.4703 11.5453L16.4795 11.5355C16.527 11.4854 16.5999 11.45 16.6999 11.45H17.8749V12.1166H16.7499C16.5298 12.1166 16.3838 11.955 16.3734 11.8199Z" fill="#2B2E33" stroke="#2B2E33"/>
<path d="M14.0739 12.4795L14.0759 12.4869L14.0779 12.4943C14.4339 13.7676 15.6403 14.4917 16.816 14.4917H17.3743C17.3698 15.6606 16.411 16.6167 15.241 16.6167H5.67435C4.50163 16.6167 3.54102 15.6561 3.54102 14.4834V8.87503C3.54102 8.17707 3.87442 7.56107 4.38961 7.17609L4.38963 7.17612L4.39706 7.17046C4.75249 6.89966 5.19069 6.7417 5.67435 6.7417H15.241C16.4137 6.7417 17.3743 7.70232 17.3743 8.87503V9.07503H16.691C15.9604 9.07503 15.28 9.36288 14.7828 9.869C14.1276 10.5166 13.8126 11.4865 14.0739 12.4795Z" fill="#2B2E33" stroke="#2B2E33" stroke-width="2"/>
<path d="M13.9999 4.01675C14.2249 4.24175 14.0332 4.59175 13.7166 4.59175L7.31655 4.58341C6.94989 4.58341 6.75822 4.13341 7.02489 3.87508L8.37489 2.51675C9.51655 1.38341 11.3666 1.38341 12.5082 2.51675L13.9666 3.99175C13.9749 4.00008 13.9916 4.00841 13.9999 4.01675Z" fill="#2B2E33"/>
</svg>
